name Run_50002_IK.mot
datacolumns 164
datarows 4
range 1.3 1.33
endheader
time	         pelvis_tilt	         pelvis_list	     pelvis_rotation	           pelvis_tx	           pelvis_ty	           pelvis_tz	       hip_flexion_r	     hip_adduction_r	      hip_rotation_r	        knee_angle_r	       ankle_angle_r	       hip_flexion_l	     hip_adduction_l	      hip_rotation_l	        knee_angle_l	       ankle_angle_l	    lumbar_extension	      lumbar_bending	     lumbar_rotation	          arm_flex_r	           arm_add_r	           arm_rot_r	        elbow_flex_r	           pro_sup_r	          arm_flex_l	           arm_add_l	           arm_rot_l	        elbow_flex_l	           pro_sup_l	    subtalar_angle_r	         mtp_angle_r	    subtalar_angle_l	         mtp_angle_l	        wrist_flex_r	         wrist_dev_r	        wrist_flex_l	         wrist_dev_l	             LASI_tx	             LASI_ty	             LASI_tz	             RASI_tx	             RASI_ty	             RASI_tz	             LPSI_tx	             LPSI_ty	             LPSI_tz	             RPSI_tx	             RPSI_ty	             RPSI_tz	             RTH1_tx	             RTH1_ty	             RTH1_tz	             RTH2_tx	             RTH2_ty	             RTH2_tz	             RTH3_tx	             RTH3_ty	             RTH3_tz	             LTH1_tx	             LTH1_ty	             LTH1_tz	             LTH2_tx	             LTH2_ty	             LTH2_tz	             LTH3_tx	             LTH3_ty	             LTH3_tz	             RTB1_tx	             RTB1_ty	             RTB1_tz	             RTB2_tx	             RTB2_ty	             RTB2_tz	             RTB3_tx	             RTB3_ty	             RTB3_tz	             LTB1_tx	             LTB1_ty	             LTB1_tz	             LTB2_tx	             LTB2_ty	             LTB2_tz	             LTB3_tx	             LTB3_ty	             LTB3_tz	             RCAL_tx	             RCAL_ty	             RCAL_tz	             RTOE_tx	             RTOE_ty	             RTOE_tz	             RMT5_tx	             RMT5_ty	             RMT5_tz	             LCAL_tx	             LCAL_ty	             LCAL_tz	             LTOE_tx	             LTOE_ty	             LTOE_tz	             LMT5_tx	             LMT5_ty	             LMT5_tz	             LACR_tx	             LACR_ty	             LACR_tz	             RACR_tx	             RACR_ty	             RACR_tz	             CLAV_tx	             CLAV_ty	             CLAV_tz	               C7_tx	               C7_ty	               C7_tz	             RUA1_tx	             RUA1_ty	             RUA1_tz	             RUA2_tx	             RUA2_ty	             RUA2_tz	             RUA3_tx	             RUA3_ty	             RUA3_tz	             RLEL_tx	             RLEL_ty	             RLEL_tz	             RMEL_tx	             RMEL_ty	             RMEL_tz	             LUA1_tx	             LUA1_ty	             LUA1_tz	             LUA2_tx	             LUA2_ty	             LUA2_tz	             LUA3_tx	             LUA3_ty	             LUA3_tz	             LLEL_tx	             LLEL_ty	             LLEL_tz	             LMEL_tx	             LMEL_ty	             LMEL_tz	      RFAsuperior_tx	      RFAsuperior_ty	      RFAsuperior_tz	        RFAradius_tx	        RFAradius_ty	        RFAradius_tz	          RFAulna_tx	          RFAulna_ty	          RFAulna_tz	      LFAsuperior_tx	      LFAsuperior_ty	      LFAsuperior_tz	        LFAradius_tx	        LFAradius_ty	        LFAradius_tz	          LFAulna_tx	          LFAulna_ty	          LFAulna_tz	
1.3	        -14.80232935	         -2.78433343	        -12.79312133	          0.96520513	          0.96164890	         -0.34425838	         18.87301863	         12.34153988	          8.18864061	        -40.05743974	         23.65708660	         58.86900465	         -8.44460487	          0.59426093	       -108.54903866	          6.84629532	         -1.43170186	          6.37032583	         17.18517348	        -13.61974070	        -25.38311865	        -11.62237445	        114.97127488	        104.30023778	        -38.25416600	        -16.47025869	         -1.73640834	        102.15844701	        100.33591432	          0.00000000	          0.00000000	          0.00000000	          0.00000000	          0.00000000	          0.00000000	          0.00000000	          0.00000000	          1.00630247	          0.99249741	         -0.46274975	          0.96345835	          1.00852114	         -0.22469606	          0.83890739	          1.06392748	         -0.43757706	          0.82114598	          1.06806518	         -0.32605210	          0.88154556	          0.89182764	         -0.18711703	          0.83387555	          0.74509622	         -0.21976684	          0.88511869	          0.59142332	         -0.23487813	          0.97960952	          0.87951247	         -0.53426127	          1.00721227	          0.73482170	         -0.50342385	          1.13711388	          0.66453568	         -0.48913068	          0.87940486	          0.34236120	         -0.32475161	          0.78815115	          0.33298742	         -0.25744685	          0.75212969	          0.19879797	         -0.34919822	          1.14790445	          0.48455942	         -0.42672267	          1.01441038	          0.50652934	         -0.49135438	          0.94607824	          0.40109104	         -0.44780436	          0.57273932	          0.12939308	         -0.35840762	          0.80651570	          0.06948730	         -0.38471940	          0.75166468	          0.04848307	         -0.29061812	          0.76056069	          0.43908708	         -0.43182460	          0.87535438	          0.23093629	         -0.44824991	          0.82815835	          0.26653781	         -0.54408820	          0.98804188	          1.49282070	         -0.51053616	          1.00943598	          1.45705083	         -0.18694093	          1.05459777	          1.42932573	         -0.31752286	          0.93860992	          1.51195977	         -0.34557814	          0.91805114	          1.35427338	         -0.11406873	          0.96613213	          1.29954632	         -0.09041409	          0.91058612	          1.22129238	         -0.03924986	          0.89076562	          1.16062041	         -0.00642485	          0.88752561	          1.12830127	         -0.09245769	          0.86892972	          1.42694060	         -0.56080057	          0.87629137	          1.34951998	         -0.59983939	          0.78844186	          1.31112951	         -0.62409911	          0.75055817	          1.25732494	         -0.64973950	          0.72732484	          1.24030271	         -0.56332559	          0.99651472	          1.13210194	         -0.02347508	          1.13474897	          1.14468967	         -0.13774526	          1.13637572	          1.08879959	         -0.09658544	          0.78781414	          1.17866677	         -0.64810531	          0.93672903	          1.09665298	         -0.56211794	          0.90064452	          1.04697553	         -0.59860548	
1.31	        -14.62853651	         -2.40481576	        -12.02407103	          0.96746239	          0.96992478	         -0.34361952	         14.50681600	         11.08602660	          8.69712755	        -37.05714545	         19.98252292	         60.96389646	         -8.26365935	          0.46052564	       -103.53213584	          7.07808006	         -1.13623245	          5.66448783	         17.42196663	        -12.72003664	        -24.34273742	        -11.91975419	        117.78490569	        106.37401370	        -40.64627697	        -17.19665136	         -2.55846752	        103.94710945	        101.73315996	          0.00000000	          0.00000000	          0.00000000	          0.00000000	          0.00000000	          0.00000000	          0.00000000	          0.00000000	          1.00684127	          1.00086614	         -0.46062346	          0.96706958	          1.01596317	         -0.22367504	          0.83947275	          1.07225899	         -0.43536480	          0.82392197	          1.07529360	         -0.32334460	          0.88286108	          0.89786570	         -0.18762896	          0.82555139	          0.75397131	         -0.21916761	          0.86611195	          0.59734665	         -0.23561602	          0.98099835	          0.89325104	         -0.53663096	          1.01397913	          0.74927151	         -0.50069297	          1.14600911	          0.68510836	         -0.48891888	          0.84610856	          0.34771694	         -0.32421497	          0.75477622	          0.34198888	         -0.25736978	          0.71579335	          0.20783408	         -0.34888483	          1.17310127	          0.50048698	         -0.42928153	          1.03594220	          0.50633329	         -0.48896311	          0.98281788	          0.39126988	         -0.44549313	          0.53577767	          0.14548268	         -0.35611373	          0.76210181	          0.06857230	         -0.38533411	          0.70653297	          0.04982021	         -0.29154892	          0.79476080	          0.40443896	         -0.42527600	          0.93588169	          0.21344837	         -0.44657023	          0.88102848	          0.24212524	         -0.54016980	          0.98538395	          1.50213430	         -0.51057978	          1.01184929	          1.46528163	         -0.18815384	          1.05516923	          1.43763996	         -0.31984612	          0.93890297	          1.51991522	         -0.34509196	          0.92259582	          1.36096073	         -0.11460038	          0.97200136	          1.30661813	         -0.09246313	          0.91876636	          1.22674006	         -0.04114359	          0.90084493	          1.16497181	         -0.00928418	          0.89756749	          1.13363856	         -0.09585162	          0.86452958	          1.44065263	         -0.55903311	          0.86914978	          1.36300414	         -0.59894518	          0.77972379	          1.32761290	         -0.62223661	          0.73929580	          1.27564834	         -0.64709237	          0.71729022	          1.25895335	         -0.56025111	          1.00767365	          1.14405600	         -0.02928461	          1.14125454	          1.16740029	         -0.14696212	          1.14863363	          1.11213043	         -0.10560249	          0.77574338	          1.19728739	         -0.64655417	          0.92484466	          1.11358313	         -0.56290588	          0.88923722	          1.06436737	         -0.60052955	
1.32	        -14.37190642	         -1.98665364	        -11.14143689	          0.97032962	          0.97876407	         -0.34280440	         10.06574785	          9.74186509	          8.84201886	        -34.09672664	         14.78248368	         62.31980319	         -7.97543404	         -0.09652315	        -97.85082458	          7.28199913	         -0.89797096	          4.85441147	         17.44287419	        -12.09317661	        -23.26474332	        -12.06299223	        120.53071598	        108.57869418	        -43.08553317	        -17.78237372	         -3.83041460	        105.87567355	        103.90217931	          0.00000000	          0.00000000	          0.00000000	          0.00000000	          0.00000000	          0.00000000	          0.00000000	          0.00000000	          1.00758365	          1.00970513	         -0.45814958	          0.97131942	          1.02373869	         -0.22229742	          0.84024744	          1.08106932	         -0.43281977	          0.82735708	          1.08259258	         -0.32047302	          0.88579158	          0.90512488	         -0.18783445	          0.81866756	          0.76399742	         -0.21810999	          0.84767738	          0.60563117	         -0.23565136	          0.98256725	          0.90754779	         -0.53872049	          1.01881949	          0.76325070	         -0.49672147	          1.15175202	          0.70363029	         -0.48804544	          0.81276492	          0.35609094	         -0.32308318	          0.72129630	          0.35428908	         -0.25644369	          0.68009586	          0.21972897	         -0.34815352	          1.19530320	          0.51508229	         -0.43239207	          1.05651130	          0.50388225	         -0.48628349	          1.02008850	          0.38188039	         -0.44240442	          0.49991821	          0.16583726	         -0.35366268	          0.71498701	          0.06760364	         -0.38574136	          0.65889120	          0.05183639	         -0.29240417	          0.83268509	          0.37025091	         -0.41728910	          0.99731999	          0.19969752	         -0.44331030	          0.93548163	          0.21963555	         -0.53431116	          0.98302332	          1.51209311	         -0.51048751	          1.01440746	          1.47424153	         -0.18953935	          1.05572947	          1.44674383	         -0.32217192	          0.93933022	          1.52864433	         -0.34466287	          0.92702941	          1.36858884	         -0.11523390	          0.97780278	          1.31446798	         -0.09476839	          0.92613020	          1.23361706	         -0.04312393	          0.90967975	          1.17097261	         -0.01218262	          0.90569944	          1.14060733	         -0.09908038	          0.86077084	          1.45480828	         -0.55740353	          0.86278743	          1.37705134	         -0.59760129	          0.77159315	          1.34524065	         -0.61950990	          0.72899374	          1.29463477	         -0.64351657	          0.70882960	          1.27754432	         -0.55645054	          1.01684108	          1.15659372	         -0.03483286	          1.14533310	          1.18964480	         -0.15571484	          1.15798254	          1.13562589	         -0.11417305	          0.76483728	          1.21641588	         -0.64430636	          0.91444544	          1.13118544	         -0.56317400	          0.87956362	          1.08280278	         -0.60283092	
1.33	        -14.12182980	         -1.45567972	        -10.10866898	          0.97368265	          0.98757810	         -0.34208093	          5.68179909	          8.25923972	          8.53528420	        -31.02028056	          8.48114595	         63.05332188	         -7.36052477	         -0.97982094	        -91.55447201	          7.55544450	         -0.60849061	          3.88823827	         17.27568598	        -11.84898240	        -22.20381751	        -12.06679624	        123.25800425	        110.84619143	        -45.53195987	        -18.30965278	         -5.22666957	        107.90661178	        105.24095157	          0.00000000	          0.00000000	          0.00000000	          0.00000000	          0.00000000	          0.00000000	          0.00000000	          0.00000000	          1.00840940	          1.01857624	         -0.45527920	          0.97627912	          1.03106194	         -0.22063244	          0.84110605	          1.08991135	         -0.42986337	          0.83146515	          1.08955504	         -0.31733764	          0.89026860	          0.91226467	         -0.18828168	          0.81285091	          0.77488722	         -0.21685601	          0.82953740	          0.61611608	         -0.23515925	          0.98404529	          0.92139365	         -0.54045185	          1.02148975	          0.77560194	         -0.49226627	          1.15468479	          0.71903529	         -0.48652573	          0.77999813	          0.36719618	         -0.32120068	          0.68805154	          0.36936745	         -0.25489643	          0.64602274	          0.23339264	         -0.34627080	          1.21465543	          0.52762926	         -0.43433081	          1.07693581	          0.49883599	         -0.48373118	          1.05749396	          0.37310859	         -0.43853410	          0.46666173	          0.18895121	         -0.35099141	          0.66691335	          0.06700070	         -0.38581978	          0.61067181	          0.05519073	         -0.29252997	          0.87355300	          0.33753501	         -0.40914244	          1.05881817	          0.19005331	         -0.43746500	          0.99199092	          0.19946558	         -0.52638070	          0.98073986	          1.52230651	         -0.51025786	          1.01725516	          1.48350631	         -0.19110884	          1.05635543	          1.45613999	         -0.32439335	          0.93994040	          1.53760889	         -0.34421849	          0.93161793	          1.37700943	         -0.11564434	          0.98349442	          1.32289529	         -0.09715100	          0.93259741	          1.24182148	         -0.04498021	          0.91719749	          1.17842754	         -0.01483846	          0.91186334	          1.14888913	         -0.10197797	          0.85724102	          1.46883219	         -0.55549216	          0.85687915	          1.39135160	         -0.59604888	          0.76413879	          1.36327377	         -0.61618787	          0.71965550	          1.31352657	         -0.63930786	          0.70147343	          1.29553920	         -0.55221431	          1.02412842	          1.16952966	         -0.03996334	          1.14720417	          1.21096132	         -0.16409988	          1.16450272	          1.15861382	         -0.12234444	          0.75521204	          1.23553793	         -0.64150623	          0.90566359	          1.14912857	         -0.56341119	          0.87094324	          1.10130367	         -0.60414852	
